<?xml version="1.0" encoding="UTF-8" standalone="no"?>
<!-- Created with Inkscape (http://www.inkscape.org/) -->

<svg
   version="1.1"
   id="svg1"
   width="77.945297"
   height="77.128235"
   viewBox="0 0 77.945297 77.128235"
   sodipodi:docname="logo-D.svg"
   inkscape:version="1.3.2 (091e20ef0f, 2023-11-25)"
   xmlns:inkscape="http://www.inkscape.org/namespaces/inkscape"
   xmlns:sodipodi="http://sodipodi.sourceforge.net/DTD/sodipodi-0.dtd"
   xmlns="http://www.w3.org/2000/svg"
   xmlns:svg="http://www.w3.org/2000/svg">
  <defs
     id="defs1" />
  <sodipodi:namedview
     id="namedview1"
     pagecolor="#ffffff"
     bordercolor="#000000"
     borderopacity="0.25"
     inkscape:showpageshadow="2"
     inkscape:pageopacity="0.0"
     inkscape:pagecheckerboard="0"
     inkscape:deskcolor="#d1d1d1"
     inkscape:zoom="3.719219"
     inkscape:cx="49.472752"
     inkscape:cy="68.966091"
     inkscape:window-width="1366"
     inkscape:window-height="768"
     inkscape:window-x="0"
     inkscape:window-y="0"
     inkscape:window-maximized="0"
     inkscape:current-layer="g1" />
  <g
     inkscape:groupmode="layer"
     inkscape:label="Image"
     id="g1"
     transform="translate(-186.52059,-20.148223)">
    <path
       d="m 205.96067,94.51937 c -8.525,-1.44352 -16.0625,-2.98863 -16.75,-3.43359 -1.64328,-1.06356 -1.82848,-61.215429 -0.19159,-62.227089 1.96145,-1.21224 36.38608,-6.41921 42.44159,-6.41959 17.60544,-0.001 31.48775,16.21155 31.6438,36.95569 0.16195,21.526419 -15.50658,38.276619 -35.42875,37.874579 -3.41828,-0.069 -13.19005,-1.30648 -21.71505,-2.75 z m 33,-2.76601 c 9.46699,-3.92503 16.55023,-12.179049 19.5662,-22.800309 4.1546,-14.6311 -2.57528,-32.52512 -14.87439,-39.54943 -7.66913,-4.38002 -10.9333,-4.48877 -31.96794,-1.06499 -10.32687,1.68089 -18.98937,3.05616 -19.25,3.05616 -0.47344,0 -0.69692,56.953639 -0.22387,57.051969 0.1375,0.0286 7.9,1.35253 17.25,2.94213 17.56483,2.98619 23.01412,3.05352 29.5,0.36447 z"
       style="fill:currentColor"
       id="path1-8" />
  </g>
</svg>
