<?xml version="1.0" encoding="UTF-8" standalone="no"?>
<!-- Created with Inkscape (http://www.inkscape.org/) -->

<svg
   version="1.1"
   id="svg1"
   width="77.945297"
   height="77.128235"
   viewBox="0 0 77.945297 77.128235"
   sodipodi:docname="logo-O.svg"
   inkscape:version="1.3.2 (091e20ef0f, 2023-11-25)"
   xmlns:inkscape="http://www.inkscape.org/namespaces/inkscape"
   xmlns:sodipodi="http://sodipodi.sourceforge.net/DTD/sodipodi-0.dtd"
   xmlns="http://www.w3.org/2000/svg"
   xmlns:svg="http://www.w3.org/2000/svg">
  <defs
     id="defs1" />
  <sodipodi:namedview
     id="namedview1"
     pagecolor="#ffffff"
     bordercolor="#000000"
     borderopacity="0.25"
     inkscape:showpageshadow="2"
     inkscape:pageopacity="0.0"
     inkscape:pagecheckerboard="0"
     inkscape:deskcolor="#d1d1d1"
     inkscape:zoom="3.719219"
     inkscape:cx="49.472752"
     inkscape:cy="68.966091"
     inkscape:window-width="1366"
     inkscape:window-height="768"
     inkscape:window-x="0"
     inkscape:window-y="0"
     inkscape:window-maximized="0"
     inkscape:current-layer="g1" />
  <g
     inkscape:groupmode="layer"
     inkscape:label="Image"
     id="g1"
     transform="translate(-186.52059,-20.148223)">
    <path
       d="m 225.26098,20.148224 c -9.32188,0 -11.17389,0.3051 -16.24024,2.67969 -7.98456,3.74235 -15.13745,10.76406 -19.04101,18.69335 -3.0014,6.0967 -3.24024,7.32611 -3.24024,16.605473 0,9.18288 0.26492,10.5824 3.17383,16.72266 5.0973,10.75974 14.91229,18.95743 26.07226,21.77734 2.06475,0.52173 7.21678,0.78281 11.44922,0.58203 12.60003,-0.59771 23.31043,-6.59082 30.125,-16.85742 13.22589,-19.92563 6.14897,-46.455133 -15.19531,-56.962893 -6.15977,-3.03244 -7.26033,-3.24023 -17.10351,-3.24023 z m 0,3.02148 c 7.63251,-0.0194 9.21463,0.31933 15.18359,3.25781 12.89073,6.3461 20.02143,17.78658 20.11523,32.277353 0.0415,6.41396 -0.4186,8.55673 -3.03711,14.15234 -3.78608,8.09071 -9.67781,14.15155 -17.13476,17.62696 -8.19075,3.81738 -20.36803,4.16925 -28.3457,0.82031 -29.11797,-12.22348 -29.71452,-52.113333 -0.97852,-65.474613 4.71487,-2.19227 7.11802,-2.64216 14.19727,-2.66016 z"
       style="fill:currentColor"
       id="path1-1" />
  </g>
</svg>
