<?xml version="1.0" encoding="UTF-8" standalone="no"?>
<!-- Created with Inkscape (http://www.inkscape.org/) -->

<svg
   version="1.1"
   id="svg1"
   width="400.14505"
   height="77.942513"
   viewBox="0 0 400.14505 77.942513"
   sodipodi:docname="logoLoadText.svg"
   inkscape:version="1.3.2 (091e20ef0f, 2023-11-25)"
   xmlns:inkscape="http://www.inkscape.org/namespaces/inkscape"
   xmlns:sodipodi="http://sodipodi.sourceforge.net/DTD/sodipodi-0.dtd"
   xmlns="http://www.w3.org/2000/svg"
   xmlns:svg="http://www.w3.org/2000/svg">
  <defs
     id="defs1" />
  <sodipodi:namedview
     id="namedview1"
     pagecolor="#ffffff"
     bordercolor="#000000"
     borderopacity="0.25"
     inkscape:showpageshadow="2"
     inkscape:pageopacity="0.0"
     inkscape:pagecheckerboard="0"
     inkscape:deskcolor="#d1d1d1"
     inkscape:zoom="1.3149425"
     inkscape:cx="180.23601"
     inkscape:cy="149.43619"
     inkscape:window-width="1366"
     inkscape:window-height="768"
     inkscape:window-x="0"
     inkscape:window-y="0"
     inkscape:window-maximized="0"
     inkscape:current-layer="g1" />
  <g
     inkscape:groupmode="layer"
     inkscape:label="Image"
     id="g1"
     transform="translate(-25.420714,-19.333942)">
    <path
       fill="currentColor"
       d="m 26.087381,96.622972 c -0.366667,-0.36667 -0.666667,-16.76511 -0.666667,-36.44099 0,-34.97878 0.432606,-39.97622 3.096491,-35.77046 0.480086,0.75796 0.879774,16.56561 0.888196,35.12811 l 0.01531,33.75 h 33.877555 c 27.120853,0 34.099691,0.26766 34.991324,1.34201 0.612573,0.73811 0.817673,1.63811 0.455778,2 -0.865456,0.86546 -71.792327,0.85699 -72.65799,-0.009 z m 127.079259,-0.35519 c -11.16003,-2.81994 -20.97419,-11.01766 -26.07152,-21.77743 -2.90891,-6.14029 -3.1744,-7.53883 -3.1744,-16.72174 0,-9.27939 0.23988,-10.5083 3.24128,-16.605 3.90359,-7.92932 11.05606,-14.95154 19.04065,-18.69392 5.06635,-2.37459 6.91722,-2.68006 16.2391,-2.68006 9.84321,0 10.9452,0.20882 17.105,3.24128 21.34434,10.50779 28.42111,37.03641 15.19519,56.9621 -6.8146,10.26663 -17.52576,16.26056 -30.12582,16.8583 -4.23247,0.20078 -9.38473,-0.0618 -11.44948,-0.58353 z m 24.40204,-6.14177 c 7.45698,-3.47541 13.34889,-9.53661 17.135,-17.62735 2.61851,-5.59564 3.07806,-7.73726 3.03653,-14.15125 -0.0938,-14.4908 -7.22288,-25.9311 -20.11364,-32.2772 -5.96896,-2.93851 -7.55228,-3.27832 -15.18482,-3.25892 -7.07925,0.018 -9.48128,0.46813 -14.19618,2.6604 -28.73609,13.36134 -28.14061,53.25205 0.97742,65.47556 7.9777,3.34897 20.15491,2.99617 28.34569,-0.82124 z m 59.38484,4.2167 c -0.82906,-1.34145 37.05056,-72.48931 38.78718,-72.85249 1.62004,-0.3388 40.09112,71.32523 39.1268,72.88552 -0.76717,1.24131 -77.1464,1.20893 -77.91398,-0.033 z m 73.4672,-2.56071 c 0,-0.45123 -33.87085,-64.649 -34.41264,-65.22467 -0.26449,-0.28103 -34.58736,64.40476 -34.58736,65.18425 0,0.30143 15.525,0.54805 34.5,0.54805 18.975,0 34.5,-0.22843 34.5,-0.50763 z m 58,-0.36779 c -8.525,-1.44352 -16.0625,-2.98863 -16.75,-3.43359 -1.64328,-1.06356 -1.82848,-61.21543 -0.19159,-62.22709 1.96145,-1.21224 36.38608,-6.41921 42.44159,-6.41959 17.60544,-0.001 31.48775,16.21155 31.6438,36.95569 0.16195,21.52642 -15.50658,38.27662 -35.42875,37.87458 -3.41828,-0.069 -13.19005,-1.30648 -21.71505,-2.75 z m 33,-2.76601 c 9.46699,-3.92503 16.55023,-12.17905 19.5662,-22.80031 4.1546,-14.6311 -2.57528,-32.52512 -14.87439,-39.54943 -7.66913,-4.38002 -10.9333,-4.48877 -31.96794,-1.06499 -10.32687,1.68089 -18.98937,3.05616 -19.25,3.05616 -0.47344,0 -0.69692,56.95364 -0.22387,57.05197 0.1375,0.0286 7.9,1.35253 17.25,2.94213 17.56483,2.98619 23.01412,3.05352 29.5,0.36447 z"
       id="path2" />
  </g>
</svg>
